<?xml version="1.0" standalone="no"?>
<!DOCTYPE svg PUBLIC "-//W3C//DTD SVG 1.1//EN" "http://www.w3.org/Graphics/SVG/1.1/DTD/svg11.dtd" >
<svg>
<metadata>
Created by FontForge 20110222 at Mon Mar 25 20:45:42 2013
 By Orthosie Webmaster
</metadata>
<defs>
<font id="MorevectorsIconFontRegular" horiz-adv-x="1024" >
  <font-face 
    font-family="MorevectorsIconFontRegular"
    font-weight="400"
    font-stretch="normal"
    units-per-em="1024"
    panose-1="2 0 5 9 0 0 0 0 0 0"
    ascent="819"
    descent="-205"
    x-height="770"
    cap-height="939.5"
    bbox="0 0 1000 1024"
    underline-thickness="0"
    underline-position="0"
    unicode-range="U+0041-007A"
  />
<missing-glyph 
d="M0 0h1000v1024h-1000v-1024z" />
    <glyph glyph-name=".notdef" 
d="M0 0h1000v1024h-1000v-1024z" />
    <glyph glyph-name=".notdef" 
d="M0 0h1000v1024h-1000v-1024z" />
    <glyph glyph-name=".null" horiz-adv-x="0" 
 />
    <glyph glyph-name="nonmarkingreturn" 
 />
    <glyph glyph-name="Android robot" unicode="a" 
d="M872 625q0 23 -15.5 38.5t-38 15.5t-38.5 -15.5t-16 -38.5v-227q0 -23 16 -39t38.5 -16t38 16t15.5 39v227zM257 669v-352q0 -24 17 -41t41 -17h40v-121q0 -22 16 -38t38.5 -16t38 16t15.5 38v121h74v-121q0 -22 16 -38t38.5 -16t38 16t15.5 38v121h40q24 0 41 17t17 41
v352h-486zM611.5 777q-8.5 0 -14.5 6t-6 14.5t6 14.5t14.5 6t14.5 -6t6 -14.5t-6 -14.5t-14.5 -6zM388.5 777q-8.5 0 -14.5 6t-6 14.5t6 14.5t14.5 6t14.5 -6t6 -14.5t-6 -14.5t-14.5 -6zM620 884l38 69q3 6 -3.5 10t-9.5 -3l-39 -70q-50 23 -106 23t-106 -23l-39 70
q-3 7 -10 3t-3 -10l38 -69q-57 -30 -91 -82t-34 -114h490q0 62 -34 114t-91 82zM182 679q-23 0 -38.5 -15.5t-15.5 -38.5v-227q0 -23 15.5 -39t38 -16t38.5 16t16 39v227q0 23 -16 38.5t-38 15.5v0z" />
    <glyph glyph-name="Blackberry" unicode="b" 
d="M135 834l-33 -152h120q65 0 93.5 24.5t28.5 61.5q0 27 -21.5 46.5t-72.5 19.5h-115zM447 834l-33 -152h120q65 0 93 24.5t28 61.5q0 27 -21 46.5t-72 19.5h-115zM731 698l-33 -152h121q65 0 93 24.5t28 61.5q0 27 -21 46.5t-72 19.5h-116zM93 605l-33 -152h121
q64 0 92.5 24.5t28.5 61.5q0 27 -21 46.5t-72 19.5h-116zM405 605l-33 -152h121q64 0 92.5 24.5t28.5 61.5q0 27 -21 46.5t-72 19.5h-116zM686 459l-33 -152h121q65 0 93 25t28 61q0 27 -21 46.5t-72 19.5h-116zM360 366l-33 -152h121q65 0 93 25t28 61q0 27 -21 46.5
t-72 19.5h-116z" />
    <glyph glyph-name="Creative Commons" unicode="c" 
d="M131 524q0 -72 28.5 -139t81.5 -120q109 -108 260 -108q72 0 140 28t123 81q105 103 105 258q0 154 -107 260q-108 109 -261 109q-154 0 -260 -108q-53 -53 -81.5 -120.5t-28.5 -140.5zM182 207q-132 132 -132 317q0 89 34.5 171.5t98.5 147.5q129 131 316 131
q189 0 321 -132q130 -129 130 -318t-128 -316q-67 -65 -150 -99.5t-173 -34.5q-89 0 -170.5 34.5t-146.5 98.5zM378 384q38 0 69 19t49 52l-56 28q-16 -39 -55 -39q-30 0 -45 22t-15 58q0 80 60 80q33 0 50 -37l60 32q-36 65 -119 65q-57 0 -94.5 -38t-37.5 -102
q0 -66 36.5 -103t97.5 -37zM504 524q0 64 37.5 102t93.5 38q84 0 120 -65l-60 -32q-17 37 -50 37q-60 0 -60 -80q0 -36 15 -58t45 -22q39 0 55 39l56 -28q-18 -33 -49 -52t-69 -19q-61 0 -97.5 37t-36.5 103v0z" />
    <glyph glyph-name="Drupal" unicode="d" 
d="M699 807q-22 13 -67 33t-68 35q-29 20 -97 99q-7 -70 -45 -101q-16 -13 -32 -23t-26 -15.5t-27.5 -14t-26.5 -13.5q-16 -8 -35.5 -20.5t-52.5 -43.5t-58.5 -67.5t-44.5 -93t-19 -120.5q0 -108 56.5 -198.5t149 -140t197.5 -49.5q107 0 197 46.5t145 135t55 199.5
q0 48 -10 91.5t-24.5 75.5t-36.5 62.5t-38.5 48.5t-39.5 36.5t-31.5 24t-20.5 13.5zM193 640q-15 9 -2 29q19 30 53 58t56 41.5t40 22.5q52 26 87 52q21 16 32.5 34.5t16.5 57.5q9 -27 7 -58q-1 -18 -26 -40q-3 -2 -14.5 -8t-13.5 -6q-6 -4 0 -5q12 -3 12 -11q0 -14 -22 -36
q-28 -29 -55 -49.5t-74 -48.5q-29 -17 -53 -26t-31.5 -8t-12.5 1zM703 161q-4 -3 -15.5 -10t-33.5 -15.5t-44 -10.5q-109 -10 -150 28q-5 5 -4.5 10t4.5 8q7 6 13 6q4 0 7 -2q32 -25 100 -25q76 0 114 29q10 7 12 -3q2 -9 -3 -15zM550 234q25 23 41 29q13 5 37 5q27 0 39 -8
q11 -7 20 -31q5 -11 -7 -17q-4 -2 -6 -0.5t-7 9.5q-4 8 -7 11.5t-12 7.5t-23 4t-25.5 -4t-15 -6.5t-15.5 -12.5t-16 -11.5t-9 2.5q-8 10 6 22zM779 254q-13 1 -38.5 26t-53 50t-44.5 26q-16 0 -48 -16t-63 -36t-70 -36.5t-68 -16.5q-36 0 -53.5 4.5t-32.5 14.5
q-40 27 -39 84q1 51 43.5 91t102.5 40q35 1 71.5 -14.5t61 -34.5t51 -34.5t43.5 -15.5q22 0 85.5 43t84.5 43q29 0 42.5 -23t13.5 -49q0 -24 -7.5 -54.5t-22.5 -51.5q-16 -24 -28.5 -32.5t-30.5 -7.5z" />
    <glyph glyph-name="smugmug" unicode="e" 
d="M852 612h-667q-23 -46 -34 -101.5t-4 -117.5t35 -110q66 -111 239 -111q58 0 111.5 20t94 51.5t76 74t60 84t44 85t29.5 73t16 52.5zM940 628q0 -15 -9 -50t-29 -86t-48.5 -105.5t-72 -109t-94 -97t-120.5 -69.5t-146 -27q-90 0 -160 27t-110.5 72.5t-64 103.5t-26 121.5
t10 126t38.5 117.5q9 19 19.5 31t16.5 15l6 2h727q2 0 6.5 -1t15 -5.5t19 -11.5t15 -21t6.5 -33zM713.5 964q-35.5 0 -60.5 -19.5t-25 -46.5t25 -46.5t60.5 -19.5t60.5 19.5t25 46.5t-25 46.5t-60.5 19.5zM416 898q0 -27 -25 -46.5t-60 -19.5t-60 19.5t-25 46.5t25 46.5
t60 19.5t60 -19.5t25 -46.5v0z" />
    <glyph glyph-name="Facebook" unicode="f" 
d="M940 817q0 58 -44.5 102.5t-102.5 44.5h-586q-58 0 -102.5 -44.5t-44.5 -102.5v-586q0 -58 44.5 -102.5t102.5 -44.5h293v332h-108v147h108v57q0 75 48.5 131.5t116.5 56.5h119v-147h-119q-10 0 -19 -11.5t-9 -27.5v-59h147v-147h-147v-332h156q58 0 102.5 44.5
t44.5 102.5v586z" />
    <glyph glyph-name="Google +" unicode="g" 
d="M323 964q-100 0 -162 -54q-64 -54 -64 -139q0 -55 33 -99q32 -42 89 -69v-10q-45 -19 -68 -46q-22 -26 -22 -59q0 -25 9 -42q11 -18 26 -30q14 -12 32 -19q20 -8 38 -14v-8q-76 -4 -123 -38q-48 -36 -48 -98q0 -76 67 -116q66 -39 202 -39q83 0 139 16t97 44q38 28 57 65
q18 36 18 80t-14 72.5t-38 51.5t-50 34q-27 11 -57 13l-66 4q-36 2 -72 3q-16 1 -48 2q-22 1 -41 7q-18 4 -30 15q-14 13 -14 34q0 22 16 35t28 18h74q86 0 148 53q64 54 64 133q0 32 -11 62q-10 30 -34 57v4h140v58h-207q-26 8 -55 14q-26 5 -53 5zM774 931v-119h-118v-45
h118v-118h47v118h116v45h-116v119h-47zM318 922q53 0 81 -42q29 -42 29 -113q0 -64 -29 -106q-28 -42 -80 -42q-46 0 -75 42q-29 41 -29 109q0 35 4 58q5 27 18 49q12 20 33 32q22 13 48 13zM289 361q67 0 122 -3q55 -4 70 -6q31 -7 47 -29t16 -56q0 -69 -51 -103
q-52 -35 -140 -35q-49 0 -87 11q-37 10 -57 25q-21 15 -31 36q-9 20 -9 41q0 47 27 77q27 29 93 42z" />
    <glyph glyph-name="HTML 5" unicode="h" 
d="M112 964l71 -792l317 -88l317 88l71 792h-776zM256 802h244h244l-3 -25l-4 -50l-2 -22h-1h-234h-137l8 -100h129h200h26l-3 -25l-22 -256l-2 -17l-199 -55l-199 55l-14 153h45h53l7 -77l108 -30v1l108 29l11 126h-119h-217l-24 268z" />
    <glyph glyph-name="iCloud" unicode="i" 
d="M775 235l-570 1q-21 4 -44 16t-47 34t-39 59t-15 84q0 74 32 116.5t75 56.5q13 43 47.5 74.5t94.5 31.5q27 0 58 -7q12 18 27 35t38.5 35.5t56 30t68.5 11.5q46 0 96 -20q47 -19 81 -46t50.5 -56t23 -56t5.5 -54q52 -15 89.5 -56t37.5 -112q0 -40 -12 -72t-29.5 -51.5
t-40.5 -32t-43.5 -17.5t-39.5 -5zM216 309h559q8 0 16 1t22.5 7t25.5 16.5t19 31t8 48.5q0 26 -9.5 46t-21.5 30t-28.5 16.5t-24.5 7.5t-14 2l-48 3l15 45q2 7 3.5 16t-1 29.5t-12.5 38.5t-35.5 40t-64.5 37q-36 15 -68 15q-26 0 -50 -10t-38.5 -22.5t-27.5 -29t-17 -23.5
t-6 -12l-14 -31l-32 11q-36 13 -63 13q-22 0 -38 -8.5t-23 -21.5t-9.5 -21.5t-3.5 -16.5l-3 -30l-31 -3q-7 -1 -15.5 -4.5t-21.5 -13t-21.5 -32.5t-8.5 -55.5t10 -57t26 -37t26.5 -18t19.5 -7.5z" />
    <glyph glyph-name="bitbucket" unicode="j" 
d="M505 949q-54 0 -111 -5q-93 -10 -164 -34q-19 -8 -25 -10.5t-23 -11.5t-24.5 -16t-15.5 -19t-10 -25q8 -64 28.5 -184.5t23.5 -138.5q2 -6 4.5 -22.5t4.5 -25.5t8.5 -21t15.5 -19q69 -55 206 -73q188 -18 319 46q18 10 28 17t22 20.5t15 28.5q41 239 58 343q3 12 3 28
t-9 26q-18 24 -44.5 37.5t-67.5 26.5q-112 32 -242 32zM496 890q74 0 148 -11q3 -1 15 -3t16 -3l14 -3.5t15.5 -5t13 -6.5t13 -9t10.5 -11q-10 -10 -20 -16.5t-26.5 -11t-23 -6t-29.5 -5t-25 -3.5q-116 -13 -234 0q-3 0 -16 2t-17.5 3t-15.5 3t-16.5 3.5t-15 4.5t-16 6.5
t-14 8.5t-13.5 11q4 6 9 10.5t12.5 8.5t12 6.5t14 5t13 3.5t15 3t13.5 3q73 11 148 12zM497 657q44 0 79.5 -29.5t39.5 -72.5q8 -48 -25 -88.5t-81 -43.5q-47 -6 -86.5 28t-39.5 82q-3 36 17 68t53 46q20 9 43 10zM497 598q-14 0 -25 -7q-30 -14 -30 -52t31 -52
q28 -16 58.5 4t26.5 52q0 23 -19 39.5t-42 15.5zM235 352l-9 -5l-3 -8q17 -105 29 -153q11 -18 27.5 -31.5t39 -22.5t39 -14t42.5 -10q188 -30 310 39q25 13 36 36.5t16 62t9 51.5q0 5 4 19t2.5 23t-12.5 13q-117 -78 -265 -78t-265 78z" />
    <glyph glyph-name="launchpad" unicode="l" 
d="M530 968l1 -191l174 -101l165 94zM471 968l-340 -196l164 -95l177 101zM500 727l-175 -101l-1 -203l176 -102l175 101l1 203zM101 721v-393l164 95l1 202zM899 719l-164 -94l-1 -203l165 -95v392zM295 372l-165 -95l340 -197l-1 191zM705 371l-177 -101l1 -190l340 196z
" />
    <glyph glyph-name="mail" unicode="m" 
d="M886 891q22 0 38 -16.5t16 -38.5v-624q0 -22 -16 -38.5t-38 -16.5h-771q-22 0 -38.5 16.5t-16.5 38.5v624q0 22 16.5 38.5t38.5 16.5h771zM134 817v-31q0 -15 6.5 -31.5t16.5 -31.5q11 -15 23 -28t24 -22q45 -35 95 -72q50 -38 95 -73q8 -6 23 -18q14 -11 28 -20
q14 -10 28 -17t26 -7h1h1q12 0 26 7t28 17l28 20q10 8 23 18q48 37 95 73q56 42 95 72q12 8 24 21q12 14 22.5 29t17.5 31.5t7 31.5v31h-733zM867 231v407q-15 -15 -28 -24q-47 -36 -101 -76q-51 -38 -101 -78q-30 -25 -63 -45q-33 -22 -75 -22q-39 0 -73 22q-33 20 -63 45
q-51 41 -101 78q-15 11 -49 36.5t-52 39.5q-13 8 -27 24v-407h733z" />
    <glyph glyph-name="mercurial" unicode="n" 
d="M537 944q-72 -3 -141 -38q-6 -4 -14.5 -9.5t-30.5 -25t-39.5 -39.5t-33.5 -50.5t-19.5 -60t10 -65.5t47.5 -70q27 -27 55 -48.5t51 -35t46.5 -25.5t40.5 -18.5t33.5 -15t25.5 -15t16.5 -17.5t6 -23t-5.5 -33q-8 -25 -22 -52t-26 -45.5t-21.5 -38.5t-11.5 -35t7.5 -30.5
t33.5 -29.5q29 -17 68 -20t84 13.5t87 50.5t80.5 97t62.5 147q18 61 12 125t-27 123.5t-61 112t-87.5 91.5t-107 60.5t-119.5 19.5zM130 638q-38 -3 -59 -34.5t-4 -73.5q27 -66 112 -60l16 3q17 1 27.5 13t12 30.5t-2.5 38.5t-17.5 39t-33.5 31q-25 14 -51 13zM327 403
q-33 0 -60 -18t-40 -40q-3 -4 -8.5 -12t-15.5 -31t-12 -44t10 -48t40 -47q53 -34 97.5 -30.5t74 31t33.5 63.5q3 37 2.5 65.5t-16.5 53t-51 43.5q-26 13 -54 14z" />
    <glyph glyph-name="podcast" unicode="o" 
d="M500 915q-120 0 -221 -54.5t-160 -148.5t-59 -205q0 -3 0.5 -8.5t0.5 -7.5q4 107 64 193.5t158.5 134t216.5 47.5t216.5 -47.5t158.5 -134t64 -193.5q0 2 0.5 7.5t0.5 8.5q0 111 -59 205t-160 148.5t-221 54.5zM500 768q-115 0 -197 -76.5t-82 -183.5q0 -1 1 -16
q7 101 86 164.5t192 63.5t192 -63.5t86 -164.5q1 13 1 16q0 107 -82 183.5t-197 76.5zM498 656q-36 -1 -60.5 -24.5t-24.5 -56.5q0 -34 25.5 -57.5t61.5 -23.5t61.5 23.5t25.5 57t-25.5 57.5t-61.5 24h-1h-1zM500 479q-20 0 -29.5 -0.5t-26 -2.5t-24.5 -6.5t-19 -13.5
t-16.5 -22t-9.5 -33t-4 -46q0 -92 38 -157t91 -65t91 65t38 157q0 26 -4 46t-9.5 33t-16.5 22t-19 13.5t-24.5 6.5t-26 2.5t-29.5 0.5z" />
    <glyph glyph-name="pinterest" unicode="p" 
d="M521 964q-87 0 -157.5 -29t-114 -75.5t-67 -101t-23.5 -110.5q0 -68 26.5 -120t77.5 -73q20 -8 25 13l5 20t6 20q2 10 0.5 15t-8.5 14q-33 39 -33 99q0 99 69 170.5t180 71.5q99 0 154.5 -54t55.5 -140q0 -112 -45 -190.5t-115 -78.5q-40 0 -64.5 29t-15.5 69
q5 23 17.5 61.5t20 68t7.5 49.5q0 33 -18 54.5t-51 21.5q-40 0 -68.5 -37.5t-28.5 -93.5q0 -21 4 -41t8 -30l4 -9q-55 -234 -65 -275q-18 -75 -1 -192q0 -5 4.5 -6t7.5 3q71 93 91 165l35 139q14 -26 49 -44.5t75 -18.5q121 0 197 98t76 248q0 57 -23.5 109t-64.5 92.5
t-101.5 64.5t-130.5 24z" />
    <glyph glyph-name="google play" unicode="q" 
d="M161 964l423 -424l117 119zM111 959q-3 -1 -6 -3.5t-9 -13.5t-6 -26v-790v-3.5t1.5 -8.5t4.5 -11.5t9.5 -11t16.5 -7.5l429 428zM734 637l-119 -129l110 -111q148 80 158 87q27 16 27 41q0 8 -7 17t-14 13l-7 4zM583 475l-353 -354l448 252z" />
    <glyph glyph-name="re-tweet" unicode="r" 
d="M940 482h-144v268q0 14 -9.5 23.5t-23.5 9.5h-327l102 -104h154v-197h-144l196 -215zM237 265q-14 0 -23.5 9.5t-9.5 23.5v268h-144l196 215l196 -215h-145v-197h155l102 -104h-327z" />
    <glyph glyph-name="slideshare" unicode="s" 
d="M377.5 627q40.5 0 69 29t28.5 69t-28.5 68.5t-69 28.5t-68.5 -28.5t-28 -68.5t28 -69t68.5 -29zM634 627q40 0 68.5 29t28.5 69t-28.5 68.5t-68.5 28.5t-68.5 -28.5t-28.5 -68.5t28.5 -69t68.5 -29zM926 619q-11 -23 -32.5 -42t-38 -28.5t-52 -26t-49.5 -23.5v-140
q0 -10 -6 -29.5t-18.5 -44t-38 -42t-59.5 -17.5q-63 0 -95.5 27t-32.5 51v129q-15 3 -28 10v-139q0 -19 -24.5 -37.5t-58.5 -18.5q-37 0 -88 39.5t-51 71.5v151q-14 6 -36 15t-64.5 32t-55.5 39q-2 3 -7 9q-22 26 -28 37.5t-1 25.5q4 8 30.5 -6.5t66 -37.5t62.5 -28
q39 -9 99 -14.5t93 -3.5q29 1 48 -8.5t39 -27.5l4 -4v16q0 14 27.5 21t56.5 7h138q17 0 85 26.5t88 47.5q23 27 36 17q14 -11 -9 -54v0z" />
    <glyph glyph-name="squarespace" unicode="t" 
d="M350 403l269 272q12 13 12 30.5t-12.5 30t-30 12.5t-29.5 -12l-6 -8l-263 -264q-25 -25 -60 -25t-60 25t-25 60t25 60l256 259q-25 25 -60 25t-60 -25l-196 -198q-50 -50 -50 -121t49.5 -121t120 -50t120.5 50zM386 379q-4 -3 -7 -6q-13 -12 -13 -30t12.5 -30.5
t30.5 -12.5t31 13l270 271q25 25 60 25t60 -25t25 -60t-25 -60l-256 -259q25 -25 60 -25t60 25l196 198q50 50 50 121t-49.5 121t-120 50t-120.5 -50zM799 554.5q-12 12.5 -30 12.5t-30 -13q-3 -3 -6 -7l-263 -265q-25 -25 -60 -25t-60 25l-1 1q-13 12 -30.5 12t-30 -12.5
t-12.5 -30t13 -30.5q3 -3 6 -5q50 -46 118.5 -45t116.5 50l269 272q12 12 12 30t-12 30.5zM206 560l264 266q50 50 120 50t120 -50q12 -13 11.5 -30.5t-13 -30t-30 -12.5t-29.5 13l-4 4q-25 22 -58 20.5t-57 -24.5l-270 -272q-13 -13 -31 -13t-30.5 12.5t-12.5 30.5t13 30
q3 4 7 6v0z" />
    <glyph glyph-name="Ubuntu" unicode="u" 
d="M500 964q-182 0 -311 -129t-129 -311t129 -311t311 -129t311 129t129 311t-129 311t-311 129zM648 842q17 0 31 -8q21 -12 27.5 -35.5t-6 -44.5t-36 -27.5t-44.5 5.5t-27 35.5t6 44.5q16 29 49 30zM500 779q35 0 68 -9q6 -39 40 -58.5t71 -5.5q69 -69 76 -166l-84 -1
q-6 66 -55 111.5t-116 45.5q-38 0 -72 -16l-41 73q53 26 113 26zM358 736l43 -72q-33 -23 -53 -60t-20 -80t20 -80t53 -60l-43 -72q-81 54 -105 148q30 25 30 64t-30 64q24 94 105 148zM200.5 583q24.5 0 42 -17.5t17.5 -41.5t-17.5 -41.5t-42 -17.5t-41.5 17.5t-17 41.5
t17 41.5t41.5 17.5zM671 509l84 -1q-7 -97 -76 -166q-37 14 -71 -5.5t-40 -58.5q-33 -9 -68 -9q-60 0 -113 26l41 73q34 -16 72 -16q67 0 116 45.5t55 111.5zM651 324q33 -1 49 -30q13 -21 6.5 -44.5t-27.5 -35.5t-44.5 -6t-35.5 27.5t-6 45t27 35.5q15 8 31 8z" />
    <glyph glyph-name="ping" unicode="v" 
d="M379 699q0 -9 -8.5 -10t-9.5 7.5t8 9.5q2 1 4 0v23l-22 -4v-29v0q0 -9 -8.5 -10t-9 7.5t8.5 9.5q2 1 4 0v33l32 6h1v0v-43h-1h1zM358 669q-19 0 -32 13t-13 31.5t13 31.5t32 13t32 -13t13 -31.5t-13 -31.5t-32 -13zM358 770q-23 0 -39.5 -16.5t-16.5 -39.5t16.5 -39.5
t39.5 -16.5t39.5 16.5t16.5 39.5t-16.5 39.5t-39.5 16.5zM860 531q0 10 -2 17q-5 18 -18.5 29t-32.5 11q-27 0 -44 -22t-17 -59q0 -32 16 -53.5t45 -21.5q17 0 31 10.5t20 27.5q2 7 2 21v40zM923 420q0 -79 -37 -112q-33 -30 -96 -30q-53 0 -87 20l14 47q33 -19 73 -19
q32 0 51.5 18.5t19.5 55.5v22h-1q-24 -37 -72 -37q-47 0 -76.5 34t-29.5 86q0 59 33 94.5t80 35.5q49 0 72 -38h1l2 32h55q-2 -33 -2 -70v-139zM431 556q0 31 -2 73h55l3 -36h2q9 17 30 29.5t49 12.5q37 0 62.5 -25.5t25.5 -79.5v-146h-62v139q0 62 -48 62q-17 0 -30 -10.5
t-19 -26.5q-3 -7 -3 -19v-145h-63v172zM326 629h63v-245h-63v245zM137 561q10 -3 31 -3q35 0 55 16.5t20 46.5q0 28 -18 42.5t-51 14.5q-23 0 -37 -3v-114zM75 719q40 7 96 7q68 0 101 -27q34 -28 34 -76t-29 -76q-38 -37 -109 -37q-20 0 -31 2v-128h-62v335z" />
    <glyph glyph-name="weibo" unicode="w" 
d="M684 918q-12 1 -22 -6t-11 -19t6.5 -21.5t18.5 -10.5q4 -1 11.5 -2.5t26.5 -7t37 -14t40.5 -24.5t40 -35.5t32 -50t19.5 -66.5q1 -11 9.5 -18t18.5 -7h2h2q12 2 19 11.5t6 21.5q-6 45 -24 83t-39.5 62.5t-49.5 44.5t-51 30t-46.5 17.5t-32.5 9t-13 2.5zM673 818
q-10 0 -18 -7.5t-8 -18t7.5 -18t17.5 -8.5q4 0 10.5 -0.5t23.5 -7t31 -16.5t29 -32t22 -51q4 -20 24 -20h2h5q10 3 15.5 12t2.5 19q-9 41 -30 71t-45.5 45.5t-47 23t-41.5 8.5zM378 769q-90 -9 -211 -160q-57 -71 -83.5 -138.5t-23.5 -120t25 -92t60 -62.5
q38 -24 90.5 -40.5t114 -23.5t130 5.5t126.5 44.5q123 67 176 153.5t7 142.5q-17 20 -37.5 33t-38 16t-32 3.5t-23.5 -1.5l-9 -3q2 4 5 9.5t8.5 21t7 29.5t-4 30.5t-19.5 27.5q-26 18 -66.5 12.5t-79.5 -22.5t-59 -36l1 5t2.5 13.5t2.5 20t1.5 24.5t-0.5 26t-3.5 25.5t-7 23
t-12 18.5t-18.5 12q-5 2 -15 3h-14zM662 728q-6 -1 -10.5 -5.5t-4 -11.5t6 -11t12.5 -4q2 1 5 0.5t10.5 -2.5t13.5 -7t12 -16t8 -27q3 -13 16 -13h2q7 1 10.5 6.5t2.5 11.5q-7 45 -33 63t-51 16zM438 535q98 -1 168 -42t78 -106q10 -74 -65.5 -136.5t-191.5 -77t-205 27.5
t-98.5 116t66 136.5t191.5 77.5q33 4 57 4zM397 472q-58 2 -107 -36.5t-60.5 -96t22.5 -100.5t93 -45.5t108 36.5q49 38 59.5 95.5t-23.5 100.5q-34 44 -92 46zM389 352q2 1 3 0q2 -1 -1 -4q-2 -3 -4 -2q-3 2 0 5q1 1 2 1zM336 335q3 0 7 -0.5t8 -3.5q8 -6 8 -17.5t-8 -22.5
q-8 -10 -19 -12t-18 4q-8 5 -8 16t8 22q9 12 22 14z" />
    <glyph glyph-name="YouTube" unicode="y" 
d="M192 832q-55 0 -93.5 -38.5t-38.5 -93.5v-352q0 -55 38.5 -93.5t93.5 -38.5h616q55 0 93.5 38.5t38.5 93.5v352q0 55 -38.5 93.5t-93.5 38.5h-616zM412 707l251 -166l-251 -166v332z" />
    <glyph glyph-name="Yahoo! Messenger" unicode="z" 
d="M758 480h-523v69h523v-69zM201 579h598v-110h-1q-10 -116 -95.5 -195.5t-202.5 -79.5t-202.5 79.5t-95.5 195.5h-1v110zM398 756q23 0 39.5 -16t16.5 -39t-16.5 -39t-39.5 -16t-39 16t-16 39t16 39t39 16zM608.5 756q22.5 0 39 -16t16.5 -39t-16.5 -39t-39 -16t-39 16
t-16.5 39t16.5 39t39 16zM500 99q115 0 213 57t155 155t57 213t-57 213t-155 155t-213 57t-213 -57t-155 -155t-57 -213t57 -213t155 -155t213 -57v0z" />
    <glyph glyph-name="App Store" unicode="A" 
d="M479 920h-2q-4 -3 -5 -10t1.5 -19t7 -26t11 -31t13 -33.5t14.5 -35t14.5 -33t13.5 -30t11 -23.5q128 -300 151 -312q10 -5 18.5 -5t10.5 1t14 5q14 6 24.5 19.5t1.5 28.5q-1 3 -35 67.5t-71.5 133t-59.5 103.5q-14 22 -48.5 81t-55 89t-29.5 30zM426 719q-12 1 -18 -10
l-241 -418q-4 -7 -2 -15t9 -12l52 -30q8 -4 16 -2t12 9l241 419q4 7 2 15t-9 12l-52 30q-5 2 -10 2zM80 574q-8 0 -14 -6t-6 -14v-119q0 -9 6 -14.5t14 -5.5h119l92 159h-211zM502 574l-92 -159h220l-75 159h-53zM733 574q26 -49 56 -105q16 -31 19 -36q4 -8 6 -18h106
q8 0 14 5.5t6 14.5v119q0 8 -6 14t-14 6h-187zM793 353q-5 0 -9 -2l-30 -16q-8 -4 -10.5 -12t2.5 -16l32 -49q5 -8 13.5 -10t16.5 2l21 13q8 4 10.5 13t-1.5 17l-25 48q-6 12 -20 12zM849 247q-14 0 -31 -10q-26 -25 -4 -55q12 -17 44 -30.5t35 -23.5q1 5 1.5 13t-0.5 28.5
t-5 36.5t-14 28.5t-26 12.5zM150 243q-11 1 -12 -12l-9 -78q-1 -8 3 -10.5t11 1.5l67 46q7 5 7 11t-8 10l-52 30q-4 2 -7 2z" />
    <glyph glyph-name="Basecamp" unicode="B" 
d="M121 366q1 6 3 12q2 11 6 23q12 35 41 81q6 10 24 38q16 25 26 38q31 40 59 49q6 2 12.5 2t11.5 -1t11 -5t10 -7t10 -8.5t9 -9t8.5 -9.5t7.5 -9q23 -25 39 -33q12 -5 23 -4q13 1 31 16q25 20 61 68q45 60 62 78q2 2 6 6.5t6 6.5t6 5.5t7.5 5.5t7.5 4q9 3 19 -2q4 -2 8 -6
q1 -1 10 -7q33 -25 69 -62q27 -28 53 -60q30 -37 47 -64q9 -16 26 -47.5t20 -36.5q29 -53 14 -83q-1 -3 -2 -5q-32 -54 -115 -86q-73 -28 -170 -35q-92 -6 -178 2q-92 8 -158 34q-74 28 -111 76q-10 13 -17 27q-1 1 -2 3.5t-1 4.5zM64 327q9 -14 20 -26q21 -25 47 -46
q52 -40 124 -64q70 -23 159 -30q97 -8 187 1q94 10 168 40q73 28 130 80q18 16 28 29q11 16 13 31q1 15 -4 40q-2 10 -10 43q-3 9 -4 16q-22 95 -65 178q-38 73 -91 134t-115 95q-35 19 -74 31q-20 6 -42 10q-8 2 -11 2h-14h-27q-10 0 -12 -1q-6 0 -12 -1q-11 -2 -21 -5
q-21 -5 -41 -13q-39 -15 -76 -41q-67 -45 -121 -117q-52 -69 -87 -156q-34 -86 -50 -184q-3 -19 -3 -24v-13q0 -4 1 -5q2 -3 3 -4v0z" />
    <glyph glyph-name="Bazaar" unicode="C" 
d="M505 964q-10 0 -24 -10q-14 -9 -39 -32q-45 -42 -169 -170q-150 -156 -181 -197q-20 -26 -22 -42q-3 -15 7 -30l2 -3l1.5 -1.5l2.5 -2.5q1 -2 6 -7t6 -7q17 -17 43 -44q64 -66 137 -140q103 -104 152 -149q25 -23 40 -33q16 -12 24 -12q3 0 7 2q2 1 6 4q8 5 18 13
q20 16 53 48q64 60 148 145q83 85 143 151q30 35 46 55q9 11 13 18q2 3 4 7t2 7q0 4 -4 11q-3 5 -9 13q-11 15 -35 43q-49 55 -151 159q-120 123 -164 163q-25 23 -39 32t-24 9zM505 941q3 -2 4 -3q6 -4 15 -12q16 -14 48 -44q58 -56 136 -137q80 -83 133 -142
q27 -30 43 -50q9 -11 12 -15q2 -3 3 -5l-2 -4q-3 -5 -9 -13q-12 -16 -37 -44q-46 -52 -152 -160q-87 -89 -146 -146q-28 -28 -47 -45q-8 -7 -13 -11q-3 -3 -4 -3q-3 0 -8 4q-10 7 -30 26q-30 29 -178 182q-133 136 -157 167q-15 19 -17 29q-2 6 3 14q1 3 7 9q5 7 14 17
q19 21 47 51q56 60 136.5 141.5t135.5 135.5q32 30 47 44q8 7 14 12l1 1zM483 804q-15 -4 -62 -77q-55 -88 -56 -100q8 -9 31 -9h37v-160q0 -158 6 -164.5t44 -6.5h39v57q0 56 6.5 62.5t39.5 -26.5q21 -21 30 -25t17 3q16 14 11.5 30t-37.5 64q-33 46 -51.5 91t-11.5 62
q5 13 41 13q35 0 35 8q0 13 -54 94.5t-63 83.5h-2z" />
    <glyph glyph-name="Dropbox" unicode="D" 
d="M489 750l-166 137l-263 -162l166 -136zM763 307l-85 -45l-167 137v-294l252 155v47zM237 307v-47l252 -155v294l-167 -137zM472 413l-248 150l-152 -129l253 -148zM675 286l253 148l-152 129l-248 -150zM774 589l-263 161l166 137l263 -162z" />
    <glyph glyph-name="Etsy" unicode="E" 
d="M242 95q33 1 74 1t94.5 -0.5t83.5 -0.5q31 0 86 1.5t96.5 1.5t73.5 -3q9 -1 21.5 -4t21.5 -5t19.5 -1.5t18.5 5.5q9 11 10 27t-1 30.5t0 32.5q2 14 9.5 37t12 39t5.5 32.5t-10 27.5t-35 15q-19 -18 -21 -52.5t-10 -49.5q-30 -59 -194 -72q-193 -15 -220 36
q-10 18 -12 42.5t0.5 63t2.5 50.5q0 13 -1 42t-0.5 44.5t2.5 37t8 36.5q32 -2 91 4t105 5.5t74 -17.5q14 -9 21.5 -23.5t9.5 -27.5t11 -25t25 -18q10 3 15 9t5.5 16.5t-0.5 20t-3.5 24t-2.5 24.5q-3 41 0 93q0 8 2 24.5t2 25t-2 19t-9 15.5t-20 5q-18 -13 -22.5 -49
t-22.5 -49q-13 -9 -54 -13q-53 -5 -119 -2t-111 11q-12 132 0 276q32 32 149 31q210 0 238 -49q5 -8 7 -27t6 -32.5t14 -15.5q14 -4 21.5 3t9 21.5t0.5 29.5t-2.5 33.5t-1.5 27.5q1 12 6.5 36t2.5 36q-5 7 -13 10t-13.5 3t-15.5 -2t-12 -2q-69 -9 -157 -11t-227 0t-165 2
q-3 0 -15.5 1t-20.5 1t-17 -4t-14 -12q-4 -22 11.5 -30t40 -12.5t33.5 -15.5q6 -6 13.5 -30.5t9.5 -44.5q3 -32 3 -77.5t-1.5 -109t-1.5 -99.5q0 -38 2 -103.5t2 -110.5t-4 -75q-2 -17 -10 -40t-13 -27q-9 -10 -29.5 -14t-37 -4.5t-28 -11t-8.5 -33.5q13 -8 29 -9.5
t43.5 1.5t35.5 4z" />
    <glyph glyph-name="git" unicode="F" 
d="M450 927l-72 -69l100 -100q3 2 9.5 4t24.5 -1t34 -15q15 -12 19.5 -29.5t1.5 -29.5l-3 -12l97 -93q6 1 14.5 2.5t28 -3.5t32.5 -21q12 -17 14 -35t-3.5 -30t-14.5 -21q-9 -10 -25 -15.5t-36 -2.5t-35 18q-14 14 -17.5 32t-0.5 28l3 11l-90 87v-232q4 -1 10 -5t16.5 -19
t10.5 -35q0 -30 -22.5 -47t-48.5 -17q-25 0 -44.5 19.5t-19.5 48.5q0 19 10.5 33.5t21.5 19.5l10 5v233q-1 0 -3 1.5t-7.5 5t-10.5 8t-10 12t-8 16t-2.5 20t4.5 23.5l-100 97l-254 -245q-2 -2 -5.5 -5t-10 -13.5t-8.5 -21t4 -27t22 -32.5q57 -57 371 -358q2 -2 5 -4.5
t12.5 -7.5t19 -6.5t23.5 3.5t27 17q47 46 376 363q2 2 4.5 5t7.5 12.5t7 18.5t-1 21t-14 23q-17 16 -114 109.5t-185.5 179l-88.5 85.5q-2 2 -4.5 4t-11 5.5t-18 4t-24 -5t-28.5 -17.5z" />
    <glyph glyph-name="github octocat" unicode="G" 
d="M702 861q10 -21 13 -48t-5 -52q34 -29 45 -90.5t-6 -119.5q20 -1 63.5 -1.5t74.5 -3.5t53 -12q-8 1 -29.5 4t-33 4.5t-35 4t-36 2t-35.5 -0.5q-1 0 -5 -0.5t-6 -0.5t-5 -0.5t-4.5 -1.5t-3.5 -3t-3 -4.5t-1 -5.5q136 -11 195 -29l-42 7t-52.5 8.5t-46 6t-54.5 3.5
q-41 -82 -167 -91q1 -3 14 -20.5t15 -35.5q3 -26 1 -50t-2 -51t7 -40q4 -8 14 -15t13 -12q-15 -17 -42 -5t-32 32q-5 24 -1.5 47.5t2.5 49.5t-12 38q0 -16 -2 -47.5t-2 -58.5t6 -45q1 -5 9 -16.5t6 -20.5q-32 -3 -47 16t-15.5 49.5t-1.5 65.5t-4 63q-5 0 -7 -4t-2 -7.5
t0.5 -9.5t0.5 -8q0 -10 0.5 -32t0.5 -35t-1.5 -31.5t-5.5 -29t-11 -21t-19 -14.5t-28 -2q-1 9 6.5 20t8.5 15q9 14 5.5 73.5t-1.5 79.5q-13 -10 -13 -38t3.5 -54.5t-5.5 -50.5q-8 -18 -30 -24.5t-42 1.5q2 9 13.5 16t15.5 15q5 10 5 25.5t-1.5 30t0.5 33.5q-88 -18 -121 37
q-4 6 -10.5 23t-12.5 25q-4 4 -18 14t-17 21q19 4 34 -1.5t25.5 -17t20 -23.5t23.5 -21.5t31 -10.5q9 0 16 1.5t16 4.5t15 4q7 33 31 50q-133 18 -171 93q-102 -5 -195 -27q69 25 193 29q-3 16 -25.5 18.5t-39.5 -0.5q-76 -4 -130 -14q10 4 21.5 6.5t26 4t24 2.5t29 1.5
t26.5 1t30.5 0t27.5 0.5q-17 46 -9 111t40 92q-9 24 -6.5 57t14.5 51q23 -1 45.5 -9t32.5 -14t33 -21q61 17 132 13q10 0 32 -5t31 -4t27 13t23 14q28 12 62 13v0z" />
    <glyph glyph-name="GNOME" unicode="H" 
d="M782 964q-95 0 -144 -84q-38 -64 -24 -124q11 -53 54 -53q51 0 117 69t72 127q7 60 -63 65h-12zM500 932q-5 0 -10 -1q-29 -3 -45.5 -24.5t-18.5 -49t3.5 -55t19.5 -46.5t29 -20q27 -2 50 47t18 99t-46 50zM321 861q-8 0 -18 -4q-23 -10 -32.5 -31t-4.5 -44.5t15.5 -45.5
t26.5 -34.5t29 -10.5q21 5 29.5 47.5t-3.5 83t-42 39.5zM188 751q-11 -1 -22 -8q-19 -13 -23 -33.5t4.5 -40.5t22 -37t30 -25.5t27.5 -3.5q13 6 15.5 30t-3 50t-19.5 47t-32 21zM562 666q-74 0 -147.5 -22.5t-133.5 -72.5t-75 -117q-12 -57 11.5 -123t69.5 -120t113 -90.5
t134 -36.5q69 0 135 55t80 131q8 40 -46 47q-52 7 -97 -17q-29 -16 -26 -35q6 -47 -27 -65t-73 12q-34 26 -37.5 51.5t18.5 47.5t56 44.5t74 47.5t73.5 50.5t53 59t13.5 69.5q-7 40 -53.5 62t-115.5 22zM737 136v-5h15v-38h6v38h15v5h-36zM779 136v-43h6v38l11 -29h6l11 29
v-38h5v43h-8l-11 -29l-11 29h-9z" />
    <glyph glyph-name="identica" unicode="I" 
d="M734 548q0 -48 -18 -94l51 -142l4 -12l18 -47l-64 16l-138 44q-59 -30 -126 -30q-113 -1 -192.5 77t-79.5 188t80 188t193 78t192.5 -78t79.5 -188zM60 548q0 -107 53.5 -197t146 -142t201.5 -52q93 0 177 40l302 -89l-99 315q22 61 22 125q0 107 -53.5 197t-146 142.5
t-201.5 52t-201.5 -52.5t-146.5 -142.5t-54 -196.5v0z" />
    <glyph glyph-name="Instapaper" unicode="J" 
d="M696 109q-81 6 -105 24t-24 95v592q0 73 24 94t105 25v25h-392v-25q81 -4 105 -25t24 -94v-592q0 -77 -24 -95t-105 -24v-25h392v25z" />
    <glyph glyph-name="KDE" unicode="K" 
d="M151 962q-37 0 -64 -27t-27 -64v-694q0 -37 27 -64t64 -27h698q37 0 64 27t27 64v694q0 37 -26.5 64t-64.5 27h-698zM159 925h682q26 0 44.5 -18t18.5 -44v-678q0 -26 -18.5 -44.5t-44.5 -18.5h-682q-26 0 -44.5 18.5t-18.5 44.5v678q0 26 18.5 44t44.5 18zM160 898
q-15 0 -25.5 -10.5t-10.5 -26.5v-675q0 -15 10.5 -25.5t25.5 -10.5h680q15 0 25.5 10.5t10.5 25.5v675q0 16 -10.5 26.5t-25.5 10.5h-680zM546 853l-1 -202l147 197l119 -27l-153 -198l152 -209l-117 -37l-148 218v-196l-111 -17v460zM292.5 741q2.5 0 3.5 -1l84 -55
q15 8 32 14v-46q-47 -21 -75.5 -64.5t-28.5 -97.5q0 -73 52 -125t125 -52q51 0 93.5 26.5t65.5 69.5l43 -63q2 -2 4 -2l10 3l30 -49q2 -4 -1 -7l-44 -44q-3 -3 -7 0l-82 53q-26 -15 -54 -23l-23 -93q-1 -4 -5 -4h-62q-5 0 -6 4l-19 93q-28 8 -53 22l-83 -50q-4 -2 -7 1
l-44 44q-3 3 0 7l53 80q-16 27 -23 57l-91 23q-5 1 -5 5v62q0 5 5 6l94 20q8 26 22 49l-52 84q-2 4 1 7l44 44q1 2 3.5 2z" />
    <glyph glyph-name="Livejournal" unicode="L" 
d="M382 964q-56 0 -120 -41.5t-98 -100.5q-47 -80 -10 -147q1 -2 2 -3l334 -443q5 -7 12 -10l317 -133q6 -2 12 -2q11 0 19 7q14 11 11 29l-54 346q-1 8 -5 14l-333 440q-29 44 -87 44zM382 933q42 0 62 -30l14 -19q-34 7 -77 -8t-86 -48q-40 -32 -68 -74.5t-29 -85.5
l-17 22q-22 38 -6.5 80.5t48 78.5t77.5 60t82 24zM434 871q16 0 29 -4v0q6 -2 9 -4q2 -1 4 -4l46 -60q-34 9 -79 -5.5t-89 -49.5q-38 -31 -66 -72t-31 -83l-42 56q0 4 -1 11v2q-4 41 23 83.5t68 74.5q68 53 129 55zM493 787q16 0 29 -4q1 0 2 -1q10 -3 19 -12l234 -309
l3 -20q-2 0 -3 -1q-42 -29 -94.5 -30t-95.5 25l-222 298q68 53 128 54zM353 723l217 -292q0 -1 1 -2q10 -29 10 -59q0 -74 -53 -125q-1 -1 -2 -3l-12 5l-240 319q0 3 -1 7v1q-3 38 20 77.5t60 71.5zM775 421l30 -189q-26 -7 -45 -25t-29 -42l-184 77q50 54 50 128
q0 23 -6 45q43 -22 93 -20.5t91 26.5z" />
    <glyph glyph-name="Myspace" unicode="M" 
d="M940 340v-44v-72h-880v72v44v168h114v-168h652v168h114v-168z" />
    <glyph glyph-name="phone" unicode="N" 
d="M657 172q2 5 -6 36q-26 102 -33 121q-6 13 -12 19t-19 4q-25 -3 -83 -2q-20 0 -27 24q0 1 -5.5 19.5t-9 33.5t-7 43.5t-3.5 57.5q1 71 26 144q3 9 8 13t10.5 4h11.5q5 -1 11.5 -1t14.5 0.5t13 0.5q10 0 31 5q14 4 21 20q2 4 12.5 25.5t26 52t20.5 40.5q4 8 5.5 14.5
t2 10.5t-1 8t-2.5 5.5t-4 4.5l-3 3q-4 4 -10 12.5t-10 12.5q-17 19 -45 20q-14 -1 -32.5 0.5t-50 -10t-58.5 -35.5q-61 -53 -85 -162q0 -1 -2.5 -11t-5.5 -23t-7 -32t-7 -41t-5.5 -47t-2 -52.5t2.5 -55.5t8 -57.5t16 -57.5q21 -60 38.5 -97t24 -47t21 -21t14.5 -12
q19 -18 62.5 -31t70.5 -3q26 10 44.5 23.5t20.5 20.5v0z" />
    <glyph glyph-name="Orkut" unicode="O" 
d="M500 223q-125 0 -213 88t-88 213t88 213t213 88t213 -88t88 -213t-88 -213t-213 -88zM500 964q-90 0 -171 -35t-140 -94t-94 -140t-35 -171t35 -171t94 -140t140 -94t171 -35t171 35t140 94t94 140t35 171t-35 171t-94 140t-140 94t-171 35v0z" />
    <glyph glyph-name="photobucket" unicode="P" 
d="M720 524h-34q0 76 -54.5 130.5t-131.5 54.5v34q91 0 155.5 -64.5t64.5 -154.5zM900 286h-189q51 44 80 106t29 132t-29 132t-80 106h189v-476zM644 286q-32 -19 -67 -29q-1 0 -2 -0.5t-2 -0.5q-14 -4 -29 -6q-6 -1 -9 -2q-19 -2 -35 -2t-35 2q-3 1 -9 2q-15 2 -29 6
q-1 0 -2 0.5t-2 0.5q-35 10 -67 29q-62 37 -99 100t-37 138t37 138t99 100q32 19 67 29q1 0 2 0.5t2 0.5q14 4 29 6q7 1 9 2q19 2 35 2t35 -2q3 -1 9 -2q15 -2 29 -6q1 0 2 -0.5t2 -0.5q35 -10 67 -29q62 -37 99 -100t37 -138t-37 -138t-99 -100zM100 286v476h40h80h69
q-51 -44 -80 -106t-29 -132t29 -132t80 -106h-189zM900 802h-245q-72 40 -155 40t-155 -40h-85q0 16 -12 28t-28 12h-80q-16 0 -28 -12t-12 -28q-16 0 -28 -11.5t-12 -28.5v-476q0 -17 12 -28.5t28 -11.5h245q72 -40 155 -40t155 40h245q16 0 28 11.5t12 28.5v476
q0 17 -12 28.5t-28 11.5v0z" />
    <glyph glyph-name="subversion" unicode="Q" 
d="M201 923q-42 0 -71 -29t-29 -71v-188q74 45 186.5 93t230 88.5t187 63t126.5 38.5q-15 5 -32 5h-598zM894 855q-98 -22 -193 -51.5t-168 -58.5t-127.5 -57t-79.5 -50t-16 -34q15 -12 73 -11.5t148 10t170 20t140 19.5t58 9v172q0 17 -5 32zM643 490q-181 0 -542 -54v-212
q0 -10 2 -21q51 8 136.5 33t174.5 58.5t168 68t125.5 65t37.5 45.5q-10 18 -102 17zM899 409q-52 -36 -153.5 -78.5t-223 -81.5t-206.5 -64.5t-164 -47.5q22 -12 49 -12h598q42 0 71 29t29 70v185z" />
    <glyph glyph-name="rdio" unicode="R" 
d="M820 575q4 -25 4 -51q0 -100 -51 -184.5t-139 -133.5t-192 -49t-192 49t-139 133.5t-51 184.5t51 184.5t139 133.5t192 49q61 0 118 -18l1 -222q-5 3 -13.5 6.5t-33.5 10.5t-49.5 8t-58 -7t-62 -28.5t-47.5 -43.5t-25.5 -41t-9 -33.5t-1.5 -23.5l1 -9q1 -4 2 -12.5
t9.5 -29.5t22.5 -36.5t44 -29t71 -13.5q45 0 82.5 15t59.5 36.5t37 43t21 37.5l6 15v334q42 -21 87 -56q114 -70 220 -68q2 1 4.5 0.5t7 -7t4.5 -20.5q0 -30 -23 -54q-3 -5 -10.5 -13.5t-32.5 -27.5t-54 -29v0z" />
    <glyph glyph-name="sharethis" unicode="S" 
d="M785 395q-56 0 -100 -37l-315 157l1 9q0 1 -0.5 2.5t-0.5 3.5v3l315 158q44 -38 100 -38q64 0 109.5 45.5t45.5 110t-45.5 110t-110 45.5t-110 -45.5t-45.5 -109.5l1 -9l-315 -158q-44 37 -100 37q-64 0 -109.5 -45.5t-45.5 -109.5t45.5 -109.5t109.5 -45.5q56 0 100 37
l315 -158l-0.5 -3.5t-0.5 -5.5q0 -64 45.5 -109.5t110 -45.5t110 45.5t45.5 110t-45.5 110t-109.5 45.5z" />
    <glyph glyph-name="google talk" unicode="T" 
d="M500.5 964q-116.5 0 -216.5 -46.5t-159 -127.5t-59 -177q0 -120 90.5 -212t228.5 -123q-8 -80 -33 -146l-17 -48l48 13q117 31 232 179q139 30 229 123t90 214q0 96 -59 177t-158.5 127.5t-216 46.5zM500.5 912q104.5 0 192.5 -41t138.5 -109.5t50.5 -148.5
q0 -103 -80.5 -184t-206.5 -106l-10 -2l-6 -7q-79 -103 -162 -146q19 71 24 125l2 24l-24 3q-131 23 -216 105t-85 188q0 80 50.5 148.5t139 109.5t193 41zM628 831q-10 0 -22 -3q54 -31 87 -85q35 -55 38 -115q4 -63 -25 -122t-81 -96q23 -2 50 3q39 7 73 31t55 58
q39 59 33.5 134t-52.5 128q-27 33 -71 51.5t-85 15.5z" />
    <glyph glyph-name="Linux tux" unicode="U" 
d="M518 953q-8 0 -17 -1q-36 -3 -61 -17.5t-36 -34t-16 -46.5t-4 -47.5t2.5 -46t0.5 -34.5q-4 -60 -37 -108q-72 -85 -98 -162q-16 -49 -10 -89l-4 -4q-5 -5 -12.5 -15.5t-11.5 -14.5q-5 -6 -28 -14t-31 -24v0q-7 -13 -3 -41q4 -26 1 -35q-13 -35 -3 -53q7 -15 33 -20
q9 -2 30 -4.5t38.5 -6t31.5 -10.5l2 5l-2 -5q51 -27 93 -18q32 7 44 34q10 0 35.5 5t45.5 6q11 1 42 -3.5t50 -3.5q2 -6 4 -11q21 -42 68 -39q44 4 81 47l-5 4l5 -4q10 12 24.5 21.5t34 19t26.5 13.5q22 14 23 31q1 19 -25 49v0q-6 7 -13 33q-6 28 -17 38v0q-6 5 -14 8
q21 61 -6 133q-22 58 -78 124q-20 25 -29 37.5t-18 36t-9 47.5q-1 24 0 52.5t-5.5 58t-18 54t-38 40t-65.5 15.5zM536 834q12 0 21.5 -7t15.5 -20q6 -12 6 -26v-1q0 -15 -5 -28q-4 -7 -8 -12q-2 0 -3 1q-8 4 -19 7q3 3 5 8q3 7 3 15v0q0 8 -2 15t-6.5 11t-9.5 5h-1
q-5 -1 -9 -4q-5 -4 -7.5 -11t-3.5 -15v-1q0 -4 1 -8q-10 5 -19 7q-1 4 -1 8v1q0 15 5.5 27.5t15.5 20t21 7.5zM431 826q8 0 15 -6t11.5 -16.5t5.5 -23.5q1 -5 0 -10q-1 -1 -3 -1q-7 -3 -14 -7v9q-1 7 -3 12q-3 6 -6 9t-7 3q-4 -1 -7 -4.5t-4.5 -9.5t-0.5 -13q0 -7 3 -12
q2 -5 6 -9l1 -1l-6 -4t-5 -3q-6 5 -10 14q-4 11 -5 24t2.5 24t10.5 17.5t15 7.5h1zM479 766q20 0 43 -15q5 -3 10 -5t13 -5t15 -6v0q13 -5 17 -14q4 -7 1 -16q-8 -21 -38 -31v0q-1 0 -28 -15q-18 -11 -36 -10q-16 1 -28 11l-8 7.5t-14 10.5v0q-20 12 -24 26q-4 12 7 20
q8 6 17 13q6 4 6 5v0q18 17 30 21q8 3 17 3zM562 717q-6 -1 -17 -7q-3 -2 -10 -6t-11 -6q-29 -17 -50 -17t-42 16q-4 3 -13 11q-3 3 -4 5q-3 2 -5 2v-5v-2v0l1 -1t4 -3q9 -9 13 -12q23 -18 46 -18q22 0 54 18q3 2 10 6.5t10 5.5q10 6 14 6v7zM579 693q9 -36 28 -83.5
t34 -76.5q30 -56 40 -108q8 0 18 -3q15 40 -1 81.5t-38 61.5q-11 11 -4 10q18 -16 35 -42.5t24 -55.5q7 -32 1 -60q3 -2 7 -3q28 -14 38.5 -27t5.5 -29q-3 1 -6 0h-1q7 24 -38 44q-57 25 -63 -16q-1 -2 -1 -5q-4 -1 -8 -3q-20 -11 -28 -43q-5 -19 -7 -66q-1 -12 -12 -49
q-28 -20 -59 -30t-66.5 -6t-66.5 24q-5 9 -14 20q-4 6 -10 13q10 0 17 3q8 4 11 12q6 17 -12 42q-21 27 -64 54q-32 20 -42 50q-8 26 0 59q9 40 46 99q4 4 -4 -14q-4 -8 -11 -21q-45 -84 -4 -138q1 52 23 103q1 3 17 38.5t23 52t15.5 46.5t10.5 52q5 -4 10 -6.5t12.5 -9.5
t8.5 -8q14 -11 31 -12q20 -1 40 10q26 15 27 15q25 8 37 25zM685 402q10 0 24 -6q33 -16 25 -35q-5 -9 -20 -17.5t-26 -5.5q-12 3 -18 17.5t-4 28.5q2 18 19 18zM658 369q1 -18 9 -32t22 -18q15 -3 34.5 6t29.5 22h8q20 1 30 -9v0q9 -7 14 -31q7 -29 15 -38v0q24 -27 23 -42
q-1 -11 -18 -21q-6 -4 -25.5 -13t-35.5 -19.5t-27 -24.5q-33 -39 -73 -42q-39 -3 -57 32v0q-9 18 2 61q2 6 7 22t7 26.5t3 19.5v0q2 46 7 65q7 26 23 35q1 0 2 1zM270 367h6q19 -3 37 -27q13 -18 32 -60v0q4 -8 10.5 -17t17.5 -22.5t15 -18.5q28 -37 26 -57v0
q-3 -38 -40 -47q-38 -8 -86 17q-15 8 -34 12t-40 6t-28 4q-21 4 -26 14q-7 14 4 44v1q4 11 -1 40q-3 24 2 33v0q6 13 25 19q25 9 32 17v0q5 5 13 15.5t11 14.5q12 12 24 12z" />
    <glyph glyph-name="Places map pin" unicode="V" 
d="M498 556q-32 0 -60 18t-43 56q-3 8 -3 27v25q0 48 33.5 74t76.5 26q46 0 78.5 -33t32.5 -80t-34 -80t-81 -33zM789 745q-2 6 -14 35q-27 64 -75.5 107t-99.5 60t-104 17q-51 0 -100.5 -17t-91.5 -50t-71 -86.5t-36 -119.5v-38q0 -10 1 -22q4 -31 20 -69.5t29.5 -62.5
t43.5 -72.5t39 -64.5q44 -74 170 -278q16 26 51 87t54 93q5 10 15.5 27.5t14.5 23.5q3 5 11.5 16t11.5 16q14 24 58.5 93.5t65.5 117.5t21 94v41q0 9 -14 52v0z" />
    <glyph glyph-name="Windows" unicode="W" 
d="M76 829l347 47v-334l-346 -2zM422 503l1 -334l-346 48v289zM464 882l460 67v-403l-460 -4v340zM924 500v-401l-460 65v337z" />
    <glyph glyph-name="XMPP" unicode="X" 
d="M70 836q4 -149 111.5 -297t265.5 -241q-73 -57 -156 -77v-4q45 11 55 14q69 12 134 49l16 -8q-61 -32 -127 -49q65 16 131 47q22 -11 42 -19q-21 9 -40 20q8 4 19 10q70 -42 144 -55q9 -3 54 -14v4q-87 22 -164 84q158 91 264.5 238.5t110.5 297.5l-112 -43
q14 -125 -59.5 -262.5t-208.5 -226.5q-5 4 -14 12q108 82 176 208.5t68 239.5q0 3 -0.5 8.5t-0.5 7.5l-111 -33q1 -11 1 -20q0 -93 -45 -196.5t-121 -182.5q-75 79 -118 181t-43 193v20l-111 33v-16q0 -112 65.5 -236.5t172.5 -206.5q-8 -6 -17 -13q-128 89 -200.5 227
t-58.5 259zM501 293q7 -5 15 -10l-18 -10q-5 3 -14 9q8 5 17 11z" />
    <glyph glyph-name="Amazon Web Services" unicode="Y" 
d="M500 949l-368 -108l368 -117l359 117zM60 785l3 -552l388 -133v559zM940 782l-391 -122l-1 -561l392 134v549z" />
  </font>
</defs>
</svg>
